<?xml version="1.0" encoding="UTF-8" standalone="no"?>
<!-- Created with Inkscape (http://www.inkscape.org/) -->

<svg
   xmlns:dc="http://purl.org/dc/elements/1.1/"
   xmlns:cc="http://creativecommons.org/ns#"
   xmlns:rdf="http://www.w3.org/1999/02/22-rdf-syntax-ns#"
   xmlns:svg="http://www.w3.org/2000/svg"
   xmlns="http://www.w3.org/2000/svg"
   xmlns:sodipodi="http://sodipodi.sourceforge.net/DTD/sodipodi-0.dtd"
   xmlns:inkscape="http://www.inkscape.org/namespaces/inkscape"
   width="156mm"
   height="122mm"
   viewBox="0 0 156 122"
   version="1.1"
   id="svg8"
   inkscape:version="0.92.4 (5da689c313, 2019-01-14)"
   sodipodi:docname="bubble.svg">
  <defs
     id="defs2">
    <clipPath
       id="clipPath28"
       clipPathUnits="userSpaceOnUse">
      <path
         inkscape:connector-curvature="0"
         id="path26"
         d="M 0,500 H 500 V 0 H 0 Z" />
    </clipPath>
    <clipPath
       id="clipPath40"
       clipPathUnits="userSpaceOnUse">
      <path
         inkscape:connector-curvature="0"
         id="path38"
         d="m 108.851,133.362 h 60.236 V 52.6204 h -60.236 z" />
    </clipPath>
    <clipPath
       id="clipPath64"
       clipPathUnits="userSpaceOnUse">
      <path
         inkscape:connector-curvature="0"
         id="path62"
         d="m 85.4176,322.378 h 4.1953 v -15.521 h -4.1953 z" />
    </clipPath>
    <clipPath
       id="clipPath80"
       clipPathUnits="userSpaceOnUse">
      <path
         inkscape:connector-curvature="0"
         id="path78"
         d="M 96.1013,367.686 H 166.341 V 319.707 H 96.1013 Z" />
    </clipPath>
    <clipPath
       id="clipPath104"
       clipPathUnits="userSpaceOnUse">
      <path
         inkscape:connector-curvature="0"
         id="path102"
         d="m 218.731,195.501 h 39.118 v -5.111 h -39.118 z" />
    </clipPath>
    <clipPath
       id="clipPath120"
       clipPathUnits="userSpaceOnUse">
      <path
         inkscape:connector-curvature="0"
         id="path118"
         d="m 263.282,261.173 h 42.613 v -76.444 h -42.613 z" />
    </clipPath>
    <clipPath
       id="clipPath148"
       clipPathUnits="userSpaceOnUse">
      <path
         inkscape:connector-curvature="0"
         id="path146"
         d="m 353.34,134.481 h 96.715 V 52.9261 H 353.34 Z" />
    </clipPath>
    <clipPath
       id="clipPath204"
       clipPathUnits="userSpaceOnUse">
      <path
         inkscape:connector-curvature="0"
         id="path202"
         d="m 343.679,365.424 h 106.44 v -46.902 h -106.44 z" />
    </clipPath>
    <clipPath
       id="clipPath228"
       clipPathUnits="userSpaceOnUse">
      <path
         inkscape:connector-curvature="0"
         id="path226"
         d="M 200.209,370.211 H 304.245 V 305.743 H 200.209 Z" />
    </clipPath>
    <clipPath
       id="clipPath244"
       clipPathUnits="userSpaceOnUse">
      <path
         inkscape:connector-curvature="0"
         id="path242"
         d="m 265.825,387.088 h 22.038 v -24.036 h -22.038 z" />
    </clipPath>
    <clipPath
       id="clipPath292"
       clipPathUnits="userSpaceOnUse">
      <path
         inkscape:connector-curvature="0"
         id="path290"
         d="m 49.507,232.75 h 123.62 V 189.036 H 49.507 Z" />
    </clipPath>
    <clipPath
       id="clipPath316"
       clipPathUnits="userSpaceOnUse">
      <path
         inkscape:connector-curvature="0"
         id="path314"
         d="m 351.715,213.368 h 90.338 v -24.142 h -90.338 z" />
    </clipPath>
    <clipPath
       id="clipPath338"
       clipPathUnits="userSpaceOnUse">
      <path
         inkscape:connector-curvature="0"
         id="path336"
         d="M 0,500 H 500 V 0 H 0 Z" />
    </clipPath>
  </defs>
  <sodipodi:namedview
     id="base"
     pagecolor="#ffffff"
     bordercolor="#666666"
     borderopacity="1.0"
     inkscape:pageopacity="0.0"
     inkscape:pageshadow="2"
     inkscape:zoom="1.979899"
     inkscape:cx="361.19729"
     inkscape:cy="234.6534"
     inkscape:document-units="mm"
     inkscape:current-layer="layer1"
     showgrid="false"
     inkscape:window-width="2400"
     inkscape:window-height="1271"
     inkscape:window-x="-9"
     inkscape:window-y="-9"
     inkscape:window-maximized="1" />
  <metadata
     id="metadata5">
    <rdf:RDF>
      <cc:Work
         rdf:about="">
        <dc:format>image/svg+xml</dc:format>
        <dc:type
           rdf:resource="http://purl.org/dc/dcmitype/StillImage" />
        <dc:title></dc:title>
      </cc:Work>
    </rdf:RDF>
  </metadata>
  <g
     inkscape:label="Layer 1"
     inkscape:groupmode="layer"
     id="layer1"
     transform="translate(0,-175)">
    <path
       inkscape:connector-curvature="0"
       id="path140"
       style="fill:#ffffff;fill-opacity:1;fill-rule:nonzero;stroke:none;stroke-width:1.10601962"
       d="M 25.585955,190.02214 H 132.00543 c 6.57362,0 11.92155,5.09701 11.92155,11.36353 v 49.26067 c 0,6.26652 -5.34793,11.36353 -11.92155,11.36353 h -8.0757 c -0.435,0 -0.85186,0.1705 -1.15207,0.47082 -0.3012,0.30029 -0.45876,0.70518 -0.43725,1.11983 l 0.88356,17.60415 -22.47581,-18.81685 c -0.29124,-0.24305 -0.66382,-0.37795 -1.050086,-0.37795 H 25.585955 c -6.57362,0 -11.92042,-5.09701 -11.92042,-11.36353 v -49.26067 c 0,-6.26652 5.3468,-11.36353 11.92042,-11.36353" />
    <path
       inkscape:connector-curvature="0"
       id="path150"
       style="opacity:0.10000598;fill:#4c2606;fill-opacity:1;fill-rule:nonzero;stroke:none;stroke-width:1.10601962"
       d="m 17.412285,193.13607 c -0.36365,1.08741 -0.563,2.24397 -0.563,3.4448 v 49.26067 c 0,6.26652 5.3468,11.36353 11.92042,11.36353 h 74.112085 c 0.3863,0 0.75897,0.13377 1.05009,0.37795 l 18.90072,15.82344 0.39195,7.79885 -22.47581,-18.81792 c -0.29125,-0.24305 -0.66383,-0.37688 -1.051244,-0.37688 H 25.586535 c -6.57362,0 -11.92155,-5.09808 -11.92155,-11.36353 v -49.26174 c 0,-3.24935 1.44656,-6.17582 3.7473,-8.24917" />
    <path
       inkscape:connector-curvature="0"
       id="path160"
       style="fill:#000000;fill-opacity:1;fill-rule:nonzero;stroke:none;stroke-width:1.10601962"
       d="m 13.665435,250.64668 c 0,6.26652 5.3468,11.36352 11.92042,11.36352 h 74.112091 c 0.386294,0 0.758974,0.13377 1.051244,0.37688 l 22.47468,18.8179 -0.88359,-17.60412 c -0.0225,-0.41469 0.13583,-0.81963 0.43729,-1.1209 0.30023,-0.3003 0.71703,-0.46976 1.15203,-0.46976 h 8.0757 c 6.57363,0 11.92158,-5.097 11.92158,-11.36352 v -49.2607 c 0,-6.26652 -5.34795,-11.36353 -11.92158,-11.36353 H 25.585855 c -6.57362,0 -11.92042,5.09701 -11.92042,11.36353 z m 11.92042,-63.65977 H 132.0053 c 8.32832,0 15.10472,6.45876 15.10472,14.39907 v 49.2607 c 0,7.93923 -6.7764,14.39796 -15.10472,14.39796 h -6.40597 l 0.98442,19.58787 c 0.0321,0.60906 -0.324,1.17597 -0.8983,1.44054 -0.22092,0.1004 -0.45652,0.14999 -0.69102,0.14999 -0.37836,0 -0.75444,-0.12948 -1.05124,-0.37688 L 99.097571,265.04452 H 25.585855 c -8.32834,0 -15.10359,-6.45873 -15.10359,-14.39797 v -49.2607 c 0,-7.94031 6.77525,-14.39906 15.10359,-14.39906" />
  </g>
</svg>
